<?xml version="1.0" encoding="UTF-8"?>
<svg id="Layer_1" data-name="Layer 1" xmlns="http://www.w3.org/2000/svg" viewBox="0 0 293.56 143.88">
  <defs>
    <style>
      .cls-1 {
        fill: #fff;
      }

      .cls-2 {
        opacity: .9;
      }
    </style>
  </defs>
  <g>
    <path class="cls-1" d="M21.64,85.19H.46v-7.45H51.6v7.45H30.39v58.12h-8.75v-58.12Z"/>
    <path class="cls-1" d="M98.37,112.65h-32.61v23.2h34.66l.03,7.45H57.24V77.74h42.7v7.45h-34.17v20.02h32.61v7.45Z"/>
    <path class="cls-1" d="M161.82,115.36c0-12.18,.13-24.55,.41-31.45h-.35c-2.8,10.63-13.42,38.77-20.94,59.39h-7.8c-5.68-16.78-16.66-48.33-19.61-59.52h-.29c.5,7.57,.73,22.13,.73,33.37v26.15h-8.19V77.74h12.97c7.45,20.35,16.55,46.6,18.8,54.95h.16c1.54-6.31,12.3-35.13,20-54.95h12.61v65.56h-8.49v-27.94Z"/>
    <path class="cls-1" d="M175.44,77.74h24.89c12.76,0,21.49,7.12,21.49,19.08,0,12.77-9.2,19.55-22.02,19.55h-15.61v26.94h-8.75V77.74Zm8.75,31.31h15.18c8.98,0,13.48-4.39,13.48-12.01s-5.44-11.98-13.13-11.98h-15.53v23.99Z"/>
  </g>
  <g>
    <path class="cls-1" d="M258.9,77.63c17.21,0,31.2,14,31.2,31.2s-14,31.2-31.2,31.2-31.2-14-31.2-31.2,14-31.2,31.2-31.2m0-2.96c-18.87,0-34.16,15.3-34.16,34.16s15.3,34.16,34.16,34.16,34.16-15.3,34.16-34.16-15.3-34.16-34.16-34.16h0Z"/>
    <g class="cls-2">
      <path class="cls-1" d="M259.39,111.47c.33-.07,.63-.2,.92-.36l11.85,10.62-10.02-13.18c.03-.2,.06-.39,.06-.6,0-.27-.03-.52-.09-.77l9.47-6.14-11.35,3.71c-.5-.26-1.05-.42-1.65-.42-2,0-3.62,1.62-3.62,3.62,0,1.88,1.43,3.4,3.26,3.58-.2,.1-.4,.21-.58,.35-1.26,.99-1.79,2.54-2.13,3.97-.32,1.46-.42,2.92-.52,4.36-.1,1.42-.08,2.9-.33,4.13-.04,.19-.1,.36-.16,.51-.05-.05-.11-.11-.16-.18-.18-.21-.35-.47-.51-.75-.65-1.11-1.17-2.41-1.58-3.7-.43-1.31-.69-2.58-.9-3.99-.22-1.39-.39-2.8-.56-4.21-.37-2.82-.7-5.67-1.14-8.52-.1-.69-.26-1.47-.33-2.09-.05-.32-.09-.64-.08-.96l-.02-.48,.04-.47c.09-1.25,.5-2.45,1.28-3.34,.76-.89,1.9-1.41,3.13-1.4,.62-.03,1.24,.12,1.87,.3,.73,.22,1.46,.41,2.2,.5,2.95,.38,5.87,.08,8.65-.66-1.59,.12-3.2,.15-4.78,.05,.13-.01,.25-.02,.38-.03,.65-.07,1.24-.24,1.84-.33,.59-.09,1.19-.17,1.75-.15,.56,0,1.1,.08,1.5,.31,.4,.22,.7,.57,.96,1.04,.26,.47,.49,1.02,.73,1.59l.37,.87c.12,.29,.21,.5,.28,.76,.18,.58,.2,1.17,.13,1.78l1.75-.57,.27-.09c-.04-.59-.15-1.19-.37-1.73-.12-.33-.3-.67-.44-.95l-.42-.81c-.29-.55-.57-1.13-.98-1.7-.39-.57-.98-1.16-1.72-1.44-.73-.3-1.47-.31-2.13-.23-1.34,.14-2.53,.66-3.66,1.01-.58,.17-1.18,.31-1.78,.39-.19,.03-.38,.05-.57,.06-.52-.08-1.03-.18-1.54-.31-.67-.16-1.31-.38-1.93-.64-.71-.28-1.49-.54-2.3-.58-1.63-.17-3.39,.48-4.56,1.69-.62,.59-1.03,1.32-1.4,2.06-.3,.76-.53,1.55-.61,2.35l-.07,.6v.59c-.03,.4,0,.79,.04,1.18,.06,.81,.18,1.43,.25,2.16l1,8.5c.18,1.42,.38,2.85,.63,4.29,.23,1.41,.54,2.96,1.06,4.35,.51,1.41,1.11,2.77,1.95,4.1,.22,.33,.45,.66,.75,.99,.15,.16,.31,.33,.51,.49,.21,.16,.44,.33,.83,.44,.35,.13,.97,.07,1.32-.2,.37-.25,.54-.54,.67-.77,.24-.48,.33-.91,.39-1.32,.2-1.61,.09-3,.06-4.44-.04-1.42-.06-2.82,.1-4.18,.15-1.35,.49-2.72,1.41-3.66,.38-.4,.86-.67,1.4-.84l-.09-.08Z"/>
      <path class="cls-1" d="M268.47,106.91c0,.34,0,.55-.03,.85-.04,.57-.11,1.16-.2,1.75-.17,1.19-.4,2.38-.65,3.57-.06,.31-.14,.61-.2,.92l1.89,2.48c.24-.97,.47-1.94,.68-2.92,.25-1.23,.46-2.47,.62-3.74,.08-.63,.15-1.27,.19-1.93,.02-.31,.02-.72,.02-1,0-.28,0-.56,.02-.84,.04-1.12,.31-2.23,.58-3.49,.03-.13,.05-.27,.07-.4l-2.58,1.67c-.16,.66-.29,1.34-.35,2.05-.04,.34-.05,.68-.05,1.02Z"/>
      <path class="cls-1" d="M265.84,120.16c-.34,1.16-.72,2.3-1.18,3.36-.22,.51-.51,1.04-.75,1.32,0,0-.01,.01-.02,.02-.18-.29-.34-.84-.43-1.37-.1-.57-.17-1.16-.23-1.76-.12-1.21-.19-2.44-.3-3.69-.15-1.24-.2-2.52-.75-3.77-.13-.28-.31-.53-.51-.77l-.49-.44c-.12-.09-.25-.17-.39-.23-.61-.27-1.29-.28-1.89-.1,.62-.06,1.24,.09,1.71,.42,.47,.33,.79,.81,.94,1.36,.29,1.09,.23,2.33,.19,3.56-.03,1.23-.09,2.46-.1,3.73,0,.63,.02,1.27,.09,1.93,.09,.66,.14,1.33,.56,2.14,.12,.2,.27,.42,.51,.62,.23,.2,.58,.35,.92,.39,.17,.02,.32,0,.47,0,.18-.04,.37-.1,.53-.17,.12-.07,.24-.15,.36-.23,.11-.08,.17-.15,.26-.24,.61-.63,.89-1.22,1.21-1.81,.59-1.19,1.04-2.38,1.45-3.57,.14-.43,.27-.86,.4-1.29l-1.94-1.74c-.21,.78-.41,1.57-.64,2.33Z"/>
    </g>
  </g>
  <g>
    <path class="cls-1" d="M.46,.44H27.17c19.62,0,32.44,12.46,32.44,31.67s-12.44,33.3-33.06,33.3H.46V.44ZM15.02,54.06h10.92c12.91,0,18.62-9.26,18.62-21.92,0-10.61-5.35-20.36-18.54-20.36H15.02V54.06Z"/>
    <path class="cls-1" d="M112.83,37.39h-32.21v16.51h33.98l-.18,11.51h-47.94V.44h47.76V11.96h-33.63v13.92h32.21v11.51Z"/>
    <path class="cls-1" d="M121.69,65.41V.44h18.05c8.41,14.59,23.96,40.9,27.06,47.98h.18c-.76-6.78-.75-18.06-.75-28.72V.44h13.2V65.41h-17.12c-7.24-12.69-24.47-42.92-27.81-50.42h-.18c.49,5.68,.65,19.03,.65,30.66v19.76h-13.29Z"/>
    <path class="cls-1" d="M205.01,11.96h-20.47V.44h55.43V11.96h-20.39v53.45h-14.58V11.96Z"/>
    <path class="cls-1" d="M290.46,37.39h-32.21v16.51h33.63s.18,11.51,.18,11.51h-47.94V.44h47.76V11.96h-33.63v13.92h32.21v11.51Z"/>
  </g>
</svg>