<?xml version="1.0" encoding="UTF-8"?>
<svg id="Layer_1" data-name="Layer 1" xmlns="http://www.w3.org/2000/svg" viewBox="0 0 514.51 58.9">
  <defs>
    <style>
      .cls-1 {
        fill: #fff;
      }

      .cls-2 {
        opacity: .9;
      }
    </style>
  </defs>
  <g id="horizontal">
    <g>
      <path class="cls-1" d="M284.12,9.05h-18V2.72h43.47v6.33h-18.02V58.44h-7.44V9.05Z"/>
      <path class="cls-1" d="M348.49,32.39h-27.72v19.72h29.46l.03,6.33h-36.73V2.72h36.29v6.33h-29.04V26.06h27.72v6.33Z"/>
      <path class="cls-1" d="M401.58,34.69c0-10.35,.11-20.87,.35-26.73h-.3c-2.38,9.03-11.4,32.95-17.8,50.48h-6.63c-4.83-14.26-14.16-41.08-16.67-50.59h-.25c.43,6.44,.62,18.81,.62,28.37v22.22h-6.96V2.72h11.03c6.33,17.3,14.06,39.61,15.98,46.7h.13c1.31-5.36,10.45-29.86,17-46.7h10.72V58.44h-7.22v-23.75Z"/>
      <path class="cls-1" d="M413.15,2.72h21.16c10.85,0,18.27,6.06,18.27,16.21,0,10.86-7.82,16.62-18.71,16.62h-13.27v22.9h-7.44V2.72Zm7.44,26.61h12.91c7.63,0,11.46-3.73,11.46-10.21s-4.63-10.19-11.16-10.19h-13.2V29.33Z"/>
    </g>
    <g>
      <path class="cls-1" d="M484.53,3.14c14.49,0,26.28,11.79,26.28,26.28s-11.79,26.28-26.28,26.28-26.28-11.79-26.28-26.28,11.79-26.28,26.28-26.28m0-2.49c-15.89,0-28.77,12.88-28.77,28.77s12.88,28.77,28.77,28.77,28.77-12.88,28.77-28.77S500.42,.64,484.53,.64h0Z"/>
      <g class="cls-2">
        <path class="cls-1" d="M484.94,31.64c.28-.06,.53-.17,.77-.3l9.98,8.94-8.43-11.1c.03-.17,.05-.33,.05-.51,0-.22-.03-.44-.07-.65l7.98-5.17-9.56,3.12c-.42-.22-.89-.35-1.39-.35-1.68,0-3.05,1.36-3.05,3.05,0,1.58,1.21,2.87,2.75,3.02-.17,.09-.34,.18-.49,.3-1.06,.83-1.51,2.14-1.8,3.34-.27,1.23-.36,2.46-.44,3.67-.08,1.2-.07,2.45-.28,3.47-.03,.16-.08,.3-.13,.43-.05-.04-.09-.09-.13-.15-.15-.18-.3-.4-.43-.63-.55-.94-.98-2.03-1.33-3.12-.36-1.11-.58-2.17-.75-3.36-.18-1.17-.33-2.36-.47-3.55-.32-2.38-.59-4.78-.96-7.18-.08-.58-.22-1.24-.28-1.76-.04-.27-.07-.54-.07-.81v-.4s.02-.4,.02-.4c.08-1.05,.42-2.07,1.07-2.82,.64-.75,1.6-1.19,2.64-1.18,.52-.02,1.04,.1,1.58,.25,.61,.19,1.23,.34,1.85,.42,2.48,.32,4.94,.07,7.28-.55-1.34,.1-2.69,.13-4.02,.04,.11-.01,.21-.02,.32-.03,.55-.06,1.04-.2,1.55-.28,.5-.08,1-.15,1.47-.13,.47,0,.93,.07,1.26,.26,.34,.18,.59,.48,.81,.87,.22,.4,.41,.86,.62,1.34l.31,.73c.1,.24,.18,.42,.24,.64,.15,.49,.17,.98,.11,1.5l1.47-.48,.23-.08c-.04-.5-.13-1-.31-1.46-.1-.28-.25-.57-.37-.8l-.36-.68c-.24-.46-.48-.95-.82-1.43-.33-.48-.83-.97-1.45-1.21-.62-.25-1.24-.26-1.8-.19-1.13,.12-2.13,.56-3.08,.85-.49,.14-.99,.26-1.5,.33-.16,.02-.32,.04-.48,.05-.44-.07-.87-.15-1.3-.26-.56-.14-1.11-.32-1.63-.54-.6-.23-1.25-.45-1.94-.49-1.37-.15-2.85,.41-3.84,1.42-.52,.49-.87,1.11-1.18,1.74-.25,.64-.45,1.31-.51,1.98l-.06,.5v.5c-.02,.34,0,.67,.04,.99,.05,.68,.15,1.21,.21,1.82l.84,7.16c.16,1.2,.32,2.4,.53,3.61,.19,1.19,.46,2.49,.89,3.66,.43,1.19,.93,2.34,1.65,3.45,.18,.28,.38,.56,.63,.83,.12,.14,.26,.28,.43,.41,.17,.13,.37,.28,.7,.37,.3,.11,.81,.06,1.11-.17,.31-.21,.46-.45,.56-.65,.2-.4,.28-.76,.33-1.11,.17-1.35,.07-2.53,.05-3.74-.03-1.19-.05-2.38,.09-3.52,.13-1.14,.42-2.29,1.18-3.09,.32-.34,.72-.56,1.18-.71l-.08-.07Z"/>
        <path class="cls-1" d="M492.58,27.79c0,.28,0,.46-.02,.72-.03,.48-.1,.98-.17,1.48-.15,1-.34,2.01-.55,3.01-.05,.26-.12,.51-.17,.77l1.59,2.09c.2-.82,.4-1.63,.57-2.46,.21-1.04,.38-2.08,.52-3.15,.07-.53,.13-1.07,.16-1.63,.02-.26,.02-.6,.02-.84,0-.23,0-.47,.01-.7,.04-.95,.26-1.87,.49-2.94,.02-.11,.04-.23,.06-.34l-2.18,1.41c-.13,.55-.24,1.13-.3,1.72-.03,.28-.04,.57-.04,.86Z"/>
        <path class="cls-1" d="M490.37,38.95c-.29,.97-.6,1.94-.99,2.83-.19,.43-.43,.88-.63,1.11,0,0-.01,.01-.02,.02-.15-.24-.28-.71-.36-1.15-.09-.48-.14-.98-.2-1.49-.1-1.02-.16-2.06-.25-3.11-.12-1.04-.17-2.12-.64-3.17-.11-.23-.26-.45-.43-.64l-.41-.37c-.1-.07-.21-.14-.33-.19-.52-.23-1.09-.23-1.59-.08,.52-.05,1.05,.07,1.44,.35,.4,.27,.66,.69,.79,1.14,.25,.92,.19,1.97,.16,2.99-.03,1.03-.08,2.08-.08,3.14,0,.53,.02,1.07,.07,1.63,.07,.56,.12,1.12,.47,1.8,.1,.17,.23,.35,.43,.52,.19,.17,.49,.3,.77,.33,.14,.02,.27,0,.4,0,.15-.03,.31-.08,.45-.14,.1-.06,.2-.13,.3-.2,.09-.07,.15-.13,.22-.2,.51-.53,.75-1.03,1.02-1.53,.5-1,.87-2,1.22-3.01,.12-.36,.23-.72,.34-1.08l-1.64-1.47c-.17,.66-.34,1.32-.54,1.97Z"/>
      </g>
    </g>
    <g>
      <path class="cls-1" d="M2.11,2.46H24.82c16.68,0,27.58,10.59,27.58,26.92s-10.58,28.3-28.1,28.3H2.11V2.46ZM14.49,48.04h9.28c10.98,0,15.83-7.87,15.83-18.63,0-9.02-4.54-17.3-15.76-17.3H14.49V48.04Z"/>
      <path class="cls-1" d="M96.48,33.87h-27.38v14.03h28.89l-.15,9.79H57.09V2.46h40.6V12.25h-28.58v11.83h27.38v9.79Z"/>
      <path class="cls-1" d="M104.01,57.69V2.46h15.34c7.15,12.4,20.37,34.76,23,40.78h.16c-.64-5.76-.63-15.35-.63-24.41V2.46h11.22V57.69h-14.55c-6.15-10.79-20.8-36.48-23.63-42.86h-.16c.42,4.83,.55,16.17,.55,26.06v16.8h-11.29Z"/>
      <path class="cls-1" d="M174.83,12.25h-17.4V2.46h47.12V12.25h-17.33V57.69h-12.39V12.25Z"/>
      <path class="cls-1" d="M247.47,33.87h-27.38v14.03h28.58s.15,9.79,.15,9.79h-40.75V2.46h40.6V12.25h-28.58v11.83h27.38v9.79Z"/>
    </g>
  </g>
</svg>