<?xml version="1.0" encoding="utf-8"?>
<!-- Generator: Adobe Illustrator 27.0.0, SVG Export Plug-In . SVG Version: 6.00 Build 0)  -->
<svg version="1.1" id="Layer_1" xmlns="http://www.w3.org/2000/svg" xmlns:xlink="http://www.w3.org/1999/xlink" x="0px" y="0px"
	 viewBox="0 0 512.67 58.81" style="enable-background:new 0 0 512.67 58.81;" xml:space="preserve">
<style type="text/css">
	.st0{fill:#006C9C;}
	.st1{display:none;fill:#006C9C;}
	.st2{fill:#FFFFFF;}
	.st3{opacity:0.9;}
	.st4{display:none;}
	.st5{display:inline;}
	.st6{display:inline;fill:#FFFFFF;}
</style>
<rect x="-51.19" y="-234.1" class="st1" width="613.24" height="505.76"/>
<g id="copy">
	<g>
		<path class="st2" d="M282.33,9.16h-18V2.83h43.47v6.33h-18.02v49.4h-7.44V9.16z"/>
		<path class="st2" d="M346.7,32.51h-27.72v19.72h29.46l0.03,6.33h-36.73V2.83h36.29v6.33h-29.04v17.02h27.72V32.51z"/>
		<path class="st2" d="M399.79,34.81c0-10.35,0.11-20.87,0.35-26.73h-0.3c-2.38,9.03-11.4,32.95-17.8,50.48h-6.63
			c-4.83-14.26-14.16-41.08-16.67-50.59h-0.25c0.43,6.44,0.62,18.81,0.62,28.37v22.22h-6.96V2.83h11.03
			c6.33,17.3,14.06,39.61,15.98,46.7h0.13c1.31-5.36,10.45-29.86,17-46.7H407v55.73h-7.22V34.81z"/>
		<path class="st2" d="M411.36,2.83h21.16c10.85,0,18.27,6.06,18.27,16.21c0,10.86-7.82,16.62-18.71,16.62H418.8v22.9h-7.44V2.83z
			 M418.8,29.44h12.91c7.63,0,11.46-3.73,11.46-10.21c0-6.79-4.63-10.19-11.16-10.19h-13.2V29.44z"/>
	</g>
	<g>
		<path class="st2" d="M483,2.74c14.62,0,26.52,11.9,26.52,26.52S497.63,55.78,483,55.78c-14.62,0-26.52-11.9-26.52-26.52
			S468.38,2.74,483,2.74 M483,0.22c-16.04,0-29.04,13-29.04,29.04s13,29.04,29.04,29.04c16.04,0,29.04-13,29.04-29.04
			S499.04,0.22,483,0.22L483,0.22z"/>
		<g class="st3">
			<path class="st2" d="M483.42,31.5c0.28-0.06,0.54-0.17,0.78-0.3l10.07,9.03l-8.51-11.21c0.03-0.17,0.05-0.34,0.05-0.51
				c0-0.23-0.03-0.45-0.07-0.66l8.05-5.22l-9.65,3.15c-0.42-0.22-0.89-0.35-1.4-0.35c-1.7,0-3.08,1.38-3.08,3.08
				c0,1.6,1.22,2.89,2.77,3.05c-0.17,0.09-0.34,0.18-0.49,0.3c-1.07,0.84-1.52,2.16-1.81,3.37c-0.27,1.24-0.36,2.48-0.44,3.71
				c-0.08,1.21-0.07,2.47-0.28,3.51c-0.03,0.16-0.08,0.31-0.13,0.43c-0.05-0.05-0.09-0.09-0.14-0.15c-0.15-0.18-0.3-0.4-0.44-0.63
				c-0.56-0.95-0.99-2.05-1.34-3.15c-0.36-1.12-0.59-2.19-0.76-3.39c-0.18-1.18-0.33-2.38-0.48-3.58c-0.32-2.4-0.59-4.82-0.96-7.24
				c-0.08-0.59-0.22-1.25-0.28-1.77c-0.04-0.27-0.07-0.54-0.07-0.81l-0.01-0.41l0.03-0.4c0.08-1.06,0.43-2.09,1.08-2.84
				c0.65-0.76,1.62-1.2,2.66-1.19c0.53-0.03,1.05,0.1,1.59,0.25c0.62,0.19,1.24,0.35,1.87,0.43c2.51,0.32,4.99,0.07,7.35-0.56
				c-1.36,0.1-2.72,0.13-4.06,0.04c0.11-0.01,0.21-0.02,0.32-0.03c0.56-0.06,1.05-0.2,1.56-0.28c0.5-0.08,1.01-0.15,1.49-0.13
				c0.48,0,0.94,0.07,1.27,0.26c0.34,0.18,0.6,0.48,0.82,0.88c0.22,0.4,0.42,0.87,0.62,1.35l0.32,0.74c0.1,0.25,0.18,0.43,0.24,0.65
				c0.16,0.5,0.17,0.99,0.11,1.51l1.49-0.49l0.23-0.08c-0.04-0.5-0.13-1.01-0.31-1.47c-0.1-0.28-0.26-0.57-0.37-0.8l-0.36-0.69
				c-0.25-0.47-0.49-0.96-0.83-1.45c-0.33-0.48-0.84-0.98-1.46-1.23c-0.62-0.25-1.25-0.26-1.81-0.2c-1.14,0.12-2.15,0.56-3.11,0.86
				c-0.49,0.15-1,0.26-1.51,0.33c-0.16,0.02-0.32,0.04-0.48,0.05c-0.44-0.07-0.88-0.15-1.31-0.26c-0.57-0.14-1.12-0.33-1.64-0.54
				c-0.6-0.23-1.26-0.46-1.96-0.49c-1.38-0.15-2.88,0.41-3.88,1.44c-0.53,0.5-0.88,1.12-1.19,1.75c-0.26,0.65-0.45,1.32-0.52,2
				l-0.06,0.51l-0.01,0.5c-0.01,0.34,0.01,0.67,0.04,1c0.05,0.68,0.15,1.22,0.21,1.84l0.85,7.23c0.16,1.21,0.33,2.42,0.53,3.64
				c0.19,1.2,0.46,2.51,0.9,3.69c0.44,1.2,0.94,2.36,1.66,3.48c0.18,0.28,0.38,0.56,0.63,0.84c0.13,0.14,0.27,0.28,0.44,0.42
				c0.18,0.13,0.38,0.28,0.71,0.37c0.3,0.11,0.82,0.06,1.12-0.17c0.31-0.21,0.46-0.46,0.57-0.66c0.2-0.41,0.28-0.77,0.33-1.12
				c0.17-1.37,0.07-2.55,0.05-3.77c-0.03-1.2-0.05-2.4,0.09-3.56c0.13-1.15,0.42-2.31,1.19-3.11c0.32-0.34,0.73-0.57,1.19-0.71
				L483.42,31.5z"/>
			<path class="st2" d="M491.13,27.62c0,0.28-0.01,0.47-0.02,0.72c-0.03,0.48-0.1,0.99-0.17,1.49c-0.15,1.01-0.34,2.02-0.55,3.04
				c-0.05,0.26-0.12,0.52-0.17,0.78l1.6,2.11c0.21-0.82,0.4-1.65,0.58-2.48c0.21-1.05,0.39-2.1,0.53-3.17
				c0.07-0.54,0.13-1.08,0.16-1.64c0.02-0.27,0.02-0.61,0.02-0.85c0-0.24,0-0.47,0.01-0.71c0.04-0.95,0.27-1.89,0.5-2.97
				c0.02-0.11,0.04-0.23,0.06-0.34l-2.2,1.42c-0.13,0.56-0.25,1.14-0.3,1.74C491.14,27.04,491.14,27.33,491.13,27.62z"/>
			<path class="st2" d="M488.9,38.89c-0.29,0.98-0.61,1.96-1,2.85c-0.19,0.43-0.44,0.89-0.64,1.12c-0.01,0.01-0.01,0.01-0.02,0.02
				c-0.15-0.25-0.29-0.71-0.36-1.16c-0.09-0.48-0.14-0.99-0.2-1.5c-0.11-1.03-0.16-2.08-0.25-3.13c-0.12-1.05-0.17-2.14-0.64-3.2
				c-0.11-0.23-0.26-0.45-0.44-0.65l-0.41-0.37c-0.1-0.07-0.21-0.14-0.33-0.19c-0.52-0.23-1.1-0.24-1.6-0.09
				c0.52-0.05,1.06,0.07,1.45,0.36c0.4,0.28,0.67,0.69,0.8,1.16c0.25,0.93,0.19,1.98,0.16,3.02c-0.03,1.04-0.08,2.09-0.08,3.17
				c0,0.54,0.02,1.08,0.07,1.64c0.07,0.56,0.12,1.13,0.48,1.82c0.1,0.17,0.23,0.36,0.44,0.53c0.2,0.17,0.49,0.3,0.78,0.33
				c0.14,0.02,0.27,0.01,0.4,0c0.15-0.03,0.32-0.08,0.45-0.15c0.1-0.06,0.21-0.13,0.3-0.2c0.09-0.07,0.15-0.13,0.22-0.2
				c0.52-0.54,0.76-1.03,1.02-1.54c0.5-1.01,0.88-2.02,1.23-3.04c0.12-0.36,0.23-0.73,0.34-1.09l-1.65-1.48
				C489.27,37.57,489.1,38.23,488.9,38.89z"/>
		</g>
	</g>
	<g>
		<path class="st2" d="M0.32,2.58h22.7C39.7,2.58,50.6,13.17,50.6,29.5c0,16.11-10.58,28.3-28.1,28.3H0.32V2.58z M12.7,48.15h9.28
			c10.98,0,15.83-7.87,15.83-18.63c0-9.02-4.54-17.3-15.76-17.3H12.7V48.15z"/>
		<path class="st2" d="M94.69,33.98H67.31v14.03H96.2l-0.15,9.79H55.3V2.58h40.6v9.79H67.31V24.2h27.38V33.98z"/>
		<path class="st2" d="M102.22,57.8V2.58h15.34c7.15,12.4,20.37,34.76,23,40.78h0.16c-0.64-5.76-0.63-15.35-0.63-24.41V2.58h11.22
			V57.8h-14.55c-6.15-10.79-20.8-36.48-23.63-42.86h-0.16c0.42,4.83,0.55,16.17,0.55,26.06v16.8H102.22z"/>
		<path class="st2" d="M173.04,12.36h-17.4V2.58h47.12v9.79h-17.33V57.8h-12.39V12.36z"/>
		<path class="st2" d="M246.68,33.98H219.3v14.03l28.58,0l0.15,9.79h-40.75V2.58h40.6v9.79H219.3V24.2h27.38V33.98z"/>
	</g>
</g>
<g class="st4">
	<g class="st5">
		<path class="st2" d="M24.19,2.41h19.63c14.42,0,23.85,9.5,23.85,24.14c0,14.44-9.15,25.38-24.3,25.38H24.19V2.41z M34.9,43.27
			h8.03c9.49,0,13.69-7.06,13.69-16.7c0-8.09-3.93-15.51-13.63-15.51H34.9V43.27z"/>
		<path class="st2" d="M107.54,30.57H83.85v12.58h26.12l-1.27,8.78H73.46V2.41h35.11v8.78H83.85v10.61h23.68V30.57z"/>
		<path class="st2" d="M114.05,51.92V2.41h13.27c6.18,11.12,17.62,31.17,19.89,36.57h0.13c-0.56-5.17-0.55-13.77-0.55-21.89V2.41
			h9.7v49.52h-12.59c-5.32-9.67-17.99-32.71-20.44-38.43h-0.14c0.36,4.33,0.48,14.5,0.48,23.37v15.06H114.05z"/>
		<path class="st2" d="M175.3,11.18h-15.04V2.41H201v8.78h-14.99v40.74H175.3V11.18z"/>
		<path class="st2" d="M238.12,30.57h-23.68v12.58h26.12l-1.27,8.78h-35.24V2.41h35.11v8.78h-24.72v10.61h23.68V30.57z"/>
		<path class="st2" d="M269.43,7.63h-16.14V1.95h38.97v5.68h-16.16v44.29h-6.67V7.63z"/>
		<path class="st2" d="M327.15,28.56H302.3v17.68h27.29l-0.85,5.68H295.8V1.95h32.54v5.68H302.3v15.26h24.85V28.56z"/>
		<path class="st2" d="M377.8,30.63c0-9.28,0.1-18.71,0.31-23.97h-0.27c-2.14,8.1-10.23,29.55-15.96,45.27h-5.94
			c-4.33-12.79-12.7-36.83-14.95-45.36h-0.22c0.38,5.77,0.55,16.87,0.55,25.44v19.93h-6.24V1.95h9.89
			c5.67,15.51,12.61,35.52,14.33,41.88h0.12c1.17-4.81,9.37-26.77,15.24-41.88h9.61v49.97h-6.47V30.63z"/>
		<path class="st2" d="M394.28,1.95h18.97c9.73,0,16.38,5.43,16.38,14.54c0,9.74-7.01,14.9-16.78,14.9h-11.9v20.53h-6.67V1.95z
			 M400.95,25.82h11.57c6.84,0,10.27-3.34,10.27-9.16c0-6.09-4.15-9.13-10.01-9.13h-11.83V25.82z"/>
	</g>
	<path class="st6" d="M458.11,2.09c14.38,0,26.07,11.7,26.07,26.07c0,14.38-11.7,26.07-26.07,26.07s-26.07-11.7-26.07-26.07
		C432.04,13.79,443.74,2.09,458.11,2.09 M458.11-0.39c-15.77,0-28.55,12.78-28.55,28.55s12.78,28.55,28.55,28.55
		s28.55-12.78,28.55-28.55S473.88-0.39,458.11-0.39L458.11-0.39z"/>
	<g class="st5">
		<path class="st2" d="M457.91,29.33c0.28-0.06,0.54-0.17,0.78-0.3l10.08,9.04l-8.52-11.22c0.03-0.17,0.05-0.34,0.05-0.51
			c0-0.23-0.03-0.45-0.07-0.66l8.06-5.23l-9.66,3.16c-0.42-0.22-0.9-0.35-1.4-0.35c-1.7,0-3.08,1.38-3.08,3.08
			c0,1.6,1.22,2.9,2.78,3.05c-0.17,0.09-0.34,0.18-0.5,0.3c-1.07,0.84-1.53,2.16-1.82,3.38c-0.27,1.24-0.36,2.49-0.44,3.71
			c-0.08,1.21-0.07,2.47-0.29,3.51c-0.03,0.16-0.08,0.31-0.13,0.43c-0.05-0.05-0.09-0.09-0.14-0.15c-0.15-0.18-0.3-0.4-0.44-0.63
			c-0.56-0.95-0.99-2.05-1.34-3.15c-0.36-1.12-0.59-2.19-0.76-3.4c-0.18-1.18-0.33-2.38-0.48-3.58c-0.32-2.4-0.59-4.83-0.97-7.25
			c-0.09-0.59-0.22-1.25-0.28-1.78c-0.04-0.27-0.07-0.55-0.07-0.82l-0.01-0.41l0.03-0.4c0.08-1.07,0.43-2.09,1.09-2.85
			c0.65-0.76,1.62-1.2,2.67-1.2c0.53-0.03,1.05,0.1,1.6,0.25c0.62,0.19,1.24,0.35,1.87,0.43c2.51,0.32,5,0.07,7.36-0.56
			c-1.36,0.1-2.72,0.13-4.06,0.04c0.11-0.01,0.21-0.02,0.32-0.03c0.56-0.06,1.05-0.2,1.56-0.28c0.5-0.08,1.01-0.15,1.49-0.13
			c0.48,0,0.94,0.07,1.28,0.26c0.34,0.18,0.6,0.48,0.82,0.88c0.22,0.4,0.42,0.87,0.62,1.35l0.32,0.74c0.1,0.25,0.18,0.43,0.24,0.65
			c0.16,0.5,0.17,0.99,0.11,1.51l1.49-0.49l0.23-0.08c-0.04-0.5-0.13-1.01-0.31-1.47c-0.1-0.28-0.26-0.57-0.37-0.8l-0.36-0.69
			c-0.25-0.47-0.49-0.96-0.83-1.45c-0.33-0.48-0.84-0.98-1.46-1.23c-0.62-0.25-1.25-0.26-1.81-0.2c-1.14,0.12-2.15,0.56-3.12,0.86
			c-0.5,0.15-1,0.26-1.51,0.33c-0.16,0.02-0.32,0.04-0.48,0.05c-0.44-0.07-0.88-0.15-1.31-0.26c-0.57-0.14-1.12-0.33-1.65-0.54
			c-0.61-0.24-1.26-0.46-1.96-0.5c-1.38-0.15-2.88,0.41-3.88,1.44c-0.53,0.5-0.88,1.12-1.19,1.75c-0.26,0.65-0.45,1.32-0.52,2
			l-0.06,0.51l-0.01,0.51c-0.01,0.34,0.01,0.67,0.04,1c0.05,0.69,0.15,1.22,0.21,1.84l0.85,7.24c0.16,1.21,0.33,2.43,0.53,3.65
			c0.19,1.2,0.46,2.52,0.9,3.7c0.44,1.2,0.94,2.36,1.66,3.49c0.18,0.28,0.38,0.56,0.63,0.84c0.13,0.14,0.27,0.28,0.44,0.42
			c0.18,0.13,0.38,0.28,0.71,0.37c0.3,0.11,0.82,0.06,1.13-0.17c0.31-0.21,0.46-0.46,0.57-0.66c0.2-0.41,0.28-0.77,0.33-1.12
			c0.17-1.37,0.08-2.56,0.05-3.77c-0.03-1.21-0.05-2.4,0.09-3.56c0.13-1.15,0.42-2.31,1.2-3.12c0.32-0.34,0.73-0.57,1.19-0.72
			L457.91,29.33z"/>
		<path class="st2" d="M465.64,25.45c0,0.29-0.01,0.47-0.02,0.73c-0.03,0.48-0.1,0.99-0.17,1.49c-0.15,1.01-0.34,2.03-0.55,3.04
			c-0.05,0.26-0.12,0.52-0.17,0.78l1.61,2.11c0.21-0.82,0.4-1.65,0.58-2.48c0.21-1.05,0.39-2.1,0.53-3.18
			c0.07-0.54,0.13-1.08,0.16-1.65c0.02-0.27,0.02-0.61,0.02-0.85c0-0.24,0-0.47,0.01-0.71c0.04-0.95,0.27-1.89,0.5-2.97
			c0.02-0.11,0.04-0.23,0.06-0.34l-2.2,1.43c-0.13,0.56-0.25,1.14-0.3,1.74C465.65,24.87,465.64,25.16,465.64,25.45z"/>
		<path class="st2" d="M463.41,36.73c-0.29,0.98-0.61,1.96-1.01,2.86c-0.19,0.44-0.44,0.89-0.64,1.12
			c-0.01,0.01-0.01,0.01-0.02,0.02c-0.16-0.25-0.29-0.71-0.37-1.16c-0.09-0.48-0.14-0.99-0.2-1.5c-0.11-1.03-0.16-2.08-0.25-3.14
			c-0.12-1.05-0.17-2.14-0.64-3.21c-0.11-0.23-0.26-0.46-0.44-0.65l-0.41-0.37c-0.1-0.07-0.21-0.14-0.33-0.19
			c-0.52-0.23-1.1-0.24-1.6-0.09c0.52-0.05,1.06,0.07,1.46,0.36c0.4,0.28,0.67,0.69,0.8,1.16c0.25,0.93,0.19,1.99,0.16,3.03
			c-0.03,1.04-0.08,2.1-0.08,3.17c0,0.54,0.02,1.08,0.07,1.64c0.07,0.57,0.12,1.13,0.48,1.82c0.1,0.17,0.23,0.36,0.44,0.53
			c0.2,0.17,0.5,0.3,0.78,0.33c0.14,0.02,0.27,0.01,0.4,0c0.15-0.03,0.32-0.08,0.45-0.15c0.1-0.06,0.21-0.13,0.31-0.2
			c0.09-0.07,0.15-0.13,0.22-0.2c0.52-0.54,0.76-1.04,1.03-1.54c0.5-1.01,0.88-2.02,1.23-3.04c0.12-0.36,0.23-0.73,0.34-1.1
			l-1.65-1.48C463.77,35.4,463.6,36.07,463.41,36.73z"/>
	</g>
</g>
</svg>
